<svg width="60" height="60" viewBox="0 0 60 60" fill="none" xmlns="http://www.w3.org/2000/svg">
<g clip-path="url(#clip0)">
<path d="M29.6 56.8V60H59.6V56.8H29.6Z" fill="#FBF221"/>
<path d="M3.2 14.4H0V62.4H3.2V14.4Z" fill="black"/>
<path d="M60 -1.19995H56.8V61.2H60V-1.19995Z" fill="#FBF221"/>
<path d="M60 -1.19995H56.8V61.2H60V-1.19995Z" fill="#FBF221"/>
<path d="M3.2 0H0V14.4H3.2V0Z" fill="#FBF221"/>
<path d="M0 56.8L0 60H36.8V56.8H0Z" fill="black"/>
<path d="M0 7.24792e-05L0 3.20007L60 3.20007V7.24792e-05L0 7.24792e-05Z" fill="#FBF221"/>
<path d="M35.2 12.4001C36.0837 12.4001 36.8 11.6837 36.8 10.8001C36.8 9.91642 36.0837 9.20007 35.2 9.20007C34.3164 9.20007 33.6 9.91642 33.6 10.8001C33.6 11.6837 34.3164 12.4001 35.2 12.4001Z" fill="#E7A4BB"/>
<path d="M22.8364 43.7637H32.8182C34.5568 43.7637 35.4909 44.5957 35.4909 46.0545C35.4909 47.3841 34.7136 48.3457 33.5273 48.3457V50.0093C35.675 50.0093 36.9909 48.3457 36.9909 46.0545C36.9909 43.6273 35.4977 42.0729 32.8182 42.0729H22.8364V43.7637ZM36.8 38.1114L32.8454 36.7069V31.0614L36.8 29.6569V27.8841L22.8364 33.0114V34.7569L36.8 39.8841V38.1114ZM31.3454 36.1751L25.0454 33.9387V33.8296L31.3454 31.5933V36.1751ZM22.8364 14.6364V16.3001H33.8273V16.4364L22.8364 24.0728V25.7091H36.8V24.0183H25.8364V23.8819L36.8 16.2728V14.6364H22.8364Z" fill="black"/>
</g>
<defs>
<clipPath id="clip0">
<rect width="60" height="60" fill="white"/>
</clipPath>
</defs>
</svg>
